<?xml version="1.0" standalone="no"?>
<!DOCTYPE svg PUBLIC "-//W3C//DTD SVG 20010904//EN"
 "http://www.w3.org/TR/2001/REC-SVG-20010904/DTD/svg10.dtd">
<svg version="1.0" xmlns="http://www.w3.org/2000/svg"
 width="1024.000000pt" height="1024.000000pt" viewBox="0 0 1024.000000 1024.000000"
 preserveAspectRatio="xMidYMid meet">

<g transform="translate(0.000000,1024.000000) scale(0.100000,-0.100000)"
fill="#000000" stroke="none">
<path d="M0 5120 l0 -5120 5120 0 5120 0 0 5120 0 5120 -5120 0 -5120 0 0
-5120z m5730 3515 c168 -28 439 -95 509 -126 24 -10 48 -19 54 -19 10 0 141
-51 262 -102 180 -76 571 -280 610 -318 19 -20 19 -20 -2 -35 -11 -8 -26 -29
-32 -46 -10 -28 -8 -33 22 -60 36 -33 61 -42 103 -37 25 3 31 9 39 44 10 41
10 41 36 25 33 -21 112 -83 121 -96 5 -6 -5 -15 -23 -23 -43 -18 -36 -48 11
-44 52 4 126 -25 152 -60 13 -17 39 -47 59 -67 79 -79 159 -174 159 -187 0
-10 -7 -13 -23 -9 -17 5 -26 0 -36 -18 -16 -31 -8 -47 57 -111 35 -34 56 -47
67 -42 10 3 15 13 12 20 -3 8 -9 32 -12 53 l-6 38 20 -25 c24 -29 84 -117 161
-237 28 -45 59 -88 68 -95 52 -44 210 -333 219 -402 10 -71 17 -97 29 -107 8
-6 14 -16 14 -21 0 -5 14 -38 30 -73 17 -35 30 -66 30 -69 0 -3 5 -17 12 -33
6 -15 13 -39 15 -53 6 -38 41 -111 59 -124 12 -9 13 -17 5 -40 -10 -24 -15
-27 -40 -21 -23 5 -32 2 -45 -17 -22 -31 -21 -35 25 -64 78 -49 101 -150 101
-445 0 -242 -5 -294 -40 -419 -2 -8 -5 -25 -6 -36 -1 -12 -10 -29 -18 -38 -9
-9 -20 -42 -23 -73 -4 -32 -23 -107 -43 -168 -19 -60 -36 -130 -36 -155 -1
-39 -4 -45 -23 -48 -15 -2 -23 2 -23 10 0 8 -9 34 -21 57 -15 32 -21 63 -21
125 -1 74 -3 83 -22 92 -13 5 -25 24 -31 48 -9 40 -9 41 39 71 15 9 15 12 1
32 -21 29 -42 20 -49 -23 -6 -30 -10 -34 -38 -34 -42 0 -127 86 -147 148 -14
41 -16 42 -57 42 -57 0 -89 -13 -110 -45 -18 -27 -17 -38 12 -185 6 -29 6 -30
-27 -26 -21 2 -41 -2 -51 -11 -24 -21 -29 -5 -38 104 -6 77 -11 98 -28 116
l-22 21 0 -65 c0 -39 -5 -72 -14 -85 -8 -11 -17 -42 -21 -69 -9 -63 -28 -97
-21 -40 2 22 7 54 11 70 5 24 -2 45 -35 105 -23 41 -51 95 -63 120 l-22 45 -3
-32 c-6 -65 -47 -33 -80 62 l-21 60 -1 -63 c0 -34 7 -89 17 -122 31 -112 -5
-87 -87 63 -33 59 -51 82 -65 82 -27 0 -31 -32 -8 -58 10 -12 29 -44 43 -70
14 -27 46 -74 73 -105 26 -32 55 -74 64 -94 19 -45 29 -47 46 -10 16 36 29 44
46 27 19 -19 27 -111 11 -130 -17 -20 -57 -19 -70 3 -10 16 -10 16 -20 0 -6
-10 -20 -18 -30 -18 -16 0 -20 7 -20 33 0 33 -23 77 -41 77 -5 0 -9 -11 -9
-24 0 -13 -9 -34 -19 -47 l-19 -24 -29 23 c-15 12 -36 25 -46 29 -14 4 -17 12
-12 34 7 33 0 36 -26 13 -11 -9 -25 -14 -35 -10 -15 6 -15 9 5 29 27 30 30 97
4 97 -9 0 -29 -12 -44 -26 -15 -14 -32 -23 -38 -20 -18 12 -12 55 9 66 37 20
19 50 -31 50 -14 0 -29 -21 -57 -77 -20 -43 -38 -80 -40 -82 -1 -3 -16 12 -33
32 -27 33 -33 36 -43 22 -14 -20 -90 -17 -92 3 -1 6 -2 16 -3 22 0 5 -8 7 -16
4 -8 -4 -13 -10 -10 -14 11 -18 -8 -40 -35 -40 -15 0 -48 -3 -74 -6 l-46 -7 0
-41 c0 -35 -4 -44 -29 -59 -34 -20 -92 -22 -109 -5 -32 32 4 100 53 102 39 1
46 26 7 26 -44 0 -96 39 -100 76 -3 35 35 108 83 159 29 32 37 35 89 35 61 0
81 -13 111 -69 17 -34 18 -35 43 -22 9 5 25 12 35 15 14 5 17 12 12 40 -4 20
-2 36 4 40 26 16 9 28 -29 21 -41 -7 -57 8 -21 20 11 3 25 13 33 22 12 15 9
16 -33 10 -44 -6 -49 -4 -92 35 -37 33 -44 44 -37 59 6 10 20 19 32 21 22 3
86 82 87 107 1 9 -6 11 -21 8 -13 -4 -88 -7 -168 -8 -80 0 -149 -4 -155 -9
-19 -15 -85 -17 -85 -3 0 14 30 59 65 98 11 13 28 35 38 49 25 37 97 87 111
78 6 -4 34 -8 61 -9 28 -1 73 -5 101 -8 43 -6 54 -4 65 12 37 49 80 73 132 73
85 0 220 -21 262 -40 104 -48 266 -36 397 31 60 30 156 117 178 159 17 34 25
40 66 46 25 3 65 4 90 1 47 -5 54 4 29 36 -10 15 -11 24 -3 43 16 34 1 46 -73
56 -68 9 -78 6 -60 -16 18 -21 7 -33 -40 -48 -22 -6 -46 -20 -54 -31 -9 -13
-20 -17 -35 -12 -13 4 -31 0 -48 -11 -81 -54 -137 -68 -149 -37 -3 9 -11 44
-18 77 -11 66 -7 63 -77 49 -25 -5 -28 -2 -28 21 0 44 48 118 133 204 43 44
89 42 109 -5 7 -15 25 -43 40 -61 15 -18 28 -41 28 -52 0 -33 23 -29 118 21
101 53 136 81 147 117 8 27 0 28 -71 5 l-53 -16 -68 29 c-61 26 -79 29 -173
29 l-105 0 -70 -54 c-38 -29 -83 -68 -100 -87 -16 -19 -33 -34 -37 -34 -18 0
-6 59 16 85 23 27 42 73 33 81 -2 2 -27 -5 -55 -17 -41 -17 -52 -27 -57 -50
-9 -40 1 -80 31 -120 27 -36 35 -119 12 -119 -7 0 -49 41 -92 91 -44 49 -92
97 -109 105 -16 9 -27 12 -25 7 34 -69 39 -88 28 -106 -9 -15 -8 -24 4 -42 9
-14 23 -46 32 -72 19 -56 40 -83 65 -83 22 0 59 -46 59 -72 0 -18 -5 -19 -47
-13 -27 3 -79 16 -118 29 -59 19 -72 27 -84 54 -8 17 -23 34 -33 38 -16 5 -18
12 -13 44 8 45 -7 80 -34 80 -14 0 -20 -10 -25 -45 -7 -41 -9 -44 -27 -32 -15
9 -24 9 -41 -2 -18 -10 -20 -11 -10 0 6 7 12 25 12 40 0 21 10 35 45 60 25 18
45 39 45 47 0 8 6 12 15 9 20 -8 29 11 14 29 -10 12 -5 21 27 53 21 21 55 59
74 85 19 25 61 74 93 108 31 34 57 65 57 68 0 8 -83 41 -88 35 -3 -3 4 -15 16
-28 20 -22 29 -47 16 -47 -3 0 -22 11 -42 25 -20 14 -43 25 -52 25 -8 0 -24 7
-34 15 -27 20 -48 19 -44 -2 2 -11 11 -17 22 -15 18 3 46 -14 46 -29 0 -5 -13
-6 -30 -2 -24 4 -30 2 -30 -11 0 -9 7 -19 15 -22 17 -7 19 -32 5 -54 -7 -11
-11 -9 -20 14 -8 22 -15 27 -32 22 -14 -3 -29 1 -40 11 -17 15 -20 15 -46 -10
-38 -37 -62 -35 -62 3 0 18 -7 33 -19 39 -13 7 -17 18 -14 34 3 14 0 28 -6 31
-6 4 -8 20 -4 36 5 26 2 30 -15 30 -25 0 -37 -17 -24 -33 6 -7 10 -29 10 -49
0 -23 9 -50 23 -69 26 -37 17 -64 -22 -64 -21 0 -24 5 -24 37 0 52 -18 68 -41
34 -13 -20 -14 -30 -5 -39 24 -24 6 -77 -26 -77 -7 0 -18 11 -25 24 -9 21 -16
24 -40 19 -21 -4 -32 -1 -43 13 -17 24 -30 12 -14 -14 7 -11 9 -27 6 -37 -6
-15 -11 -13 -42 14 -20 17 -42 31 -49 31 -18 0 -40 -27 -28 -34 5 -3 7 -17 5
-30 -4 -17 1 -28 16 -38 12 -7 21 -21 21 -30 0 -11 8 -18 20 -18 11 0 20 5 20
12 0 6 3 8 6 5 16 -16 -21 -37 -63 -37 -40 0 -46 3 -65 36 -16 28 -26 34 -47
32 -21 -2 -26 -9 -28 -33 0 -16 -2 -36 -2 -43 -2 -21 -62 -10 -75 13 -6 11
-16 23 -23 28 -14 9 -37 76 -29 85 4 3 12 0 18 -6 17 -17 38 -15 60 5 17 15
18 15 18 -10 0 -38 17 -42 24 -5 4 23 2 34 -8 40 -8 5 -12 16 -9 28 7 25 -8
26 -38 1 -23 -18 -24 -18 -52 3 -16 11 -35 34 -43 49 -17 32 -69 67 -101 67
-16 0 -21 5 -17 15 4 9 -3 16 -19 20 -14 4 -38 24 -53 46 -14 21 -30 36 -35
33 -5 -3 -6 -10 -3 -16 5 -8 1 -9 -12 -3 -10 4 -32 13 -49 19 -59 22 -58 21
-52 125 3 58 13 118 25 151 29 80 33 105 22 134 -21 56 -79 28 -234 -109 -37
-32 -95 -74 -128 -93 l-60 -33 -51 33 c-28 18 -81 59 -117 91 -57 50 -69 57
-97 52 -21 -4 -36 0 -47 10 -24 24 -19 44 14 63 36 20 40 56 8 73 -29 16 -110
5 -156 -22 -20 -12 -50 -37 -66 -56 l-29 -35 21 -59 21 -60 -21 -44 c-12 -25
-26 -45 -30 -45 -5 0 -15 -14 -22 -31 l-13 -32 -41 41 -41 41 -68 -6 c-47 -4
-80 -14 -107 -30 -70 -44 -164 -83 -198 -82 -28 1 -26 3 17 11 35 6 65 22 103
53 29 24 69 49 90 56 49 15 63 29 29 29 -32 0 -36 16 -7 25 58 18 -25 75 -109
75 -28 0 -62 -5 -76 -12 -22 -10 -25 -16 -20 -37 4 -14 7 -30 8 -35 3 -13 -45
-23 -113 -25 l-55 -2 28 -24 c15 -14 37 -25 48 -25 10 0 19 -4 19 -9 0 -11
-25 -21 -55 -21 -17 0 -24 -7 -29 -31 -9 -46 -7 -77 5 -84 16 -10 23 2 24 38
0 22 5 32 15 32 12 0 14 -11 12 -50 -2 -28 4 -69 12 -94 20 -56 21 -54 -9 -47
-55 14 -85 -33 -45 -69 19 -17 21 -17 39 -1 27 25 41 12 41 -36 0 -48 -26
-107 -49 -110 -43 -4 -99 -8 -128 -8 -18 0 -33 -5 -33 -10 0 -15 -37 -12 -71
5 -22 12 -34 13 -50 5 -17 -10 -91 -27 -136 -32 -6 -1 -14 -12 -18 -25 -6 -26
-22 -29 -59 -12 -20 9 -29 9 -41 -1 -13 -11 -19 -9 -38 9 -24 21 -67 29 -67
11 0 -5 7 -13 15 -17 15 -9 65 -72 65 -83 0 -4 -9 -17 -20 -30 -16 -18 -17
-26 -8 -37 17 -20 122 -99 155 -116 15 -8 39 -27 52 -41 23 -24 23 -26 7 -51
-9 -14 -42 -38 -74 -54 -31 -17 -70 -39 -87 -50 -36 -25 -45 -26 -45 -5 0 9
-19 34 -41 56 -41 40 -42 40 -101 35 -56 -5 -60 -4 -80 24 -18 24 -29 29 -64
29 -53 0 -64 -14 -25 -30 16 -6 38 -21 48 -32 17 -19 17 -20 0 -33 -9 -6 -17
-17 -17 -24 0 -17 -21 -13 -55 9 -23 15 -40 19 -75 14 -62 -8 -171 22 -218 59
-16 13 1 27 33 27 46 1 49 16 9 53 l-39 36 33 33 c37 40 40 48 11 48 -32 0
-18 22 36 55 110 67 156 136 119 176 -25 28 -73 52 -89 45 -9 -3 -12 0 -9 8 6
16 -6 26 -79 65 -67 36 -70 37 -62 12 6 -21 -13 -71 -28 -71 -6 0 -19 -7 -29
-17 -17 -15 -18 -15 -18 0 0 22 -35 79 -43 70 -4 -3 -7 -19 -7 -35 0 -34 -21
-37 -50 -6 -14 15 -19 30 -15 43 14 47 17 85 8 85 -23 0 -37 -34 -35 -81 2
-38 -3 -54 -18 -69 -19 -19 -40 -27 -40 -15 0 3 9 14 20 25 25 25 26 71 1 101
-16 20 -21 21 -35 10 -9 -7 -16 -19 -16 -26 0 -29 -47 -51 -146 -68 -30 -6
-33 -3 -49 39 -18 48 -37 58 -112 59 -39 0 -43 2 -41 25 3 49 -47 129 -67 108
-3 -2 7 -38 20 -79 14 -41 27 -87 30 -103 4 -17 14 -30 25 -33 11 -3 20 -10
20 -15 0 -5 4 -7 8 -4 4 2 14 1 21 -3 10 -7 9 -13 -8 -30 -25 -25 -16 -55 21
-67 13 -4 39 -19 58 -34 19 -15 52 -30 74 -33 44 -7 72 -28 80 -63 4 -13 11
-24 17 -24 6 0 36 23 66 50 30 28 59 50 65 50 10 0 -8 -23 -74 -92 -21 -21
-38 -42 -38 -46 0 -4 13 -23 30 -42 21 -26 32 -32 38 -23 7 10 12 10 25 0 22
-16 12 -57 -14 -57 -19 0 -36 -40 -25 -59 7 -11 -3 -41 -14 -41 -5 0 -27 19
-49 42 l-40 42 -6 -27 c-4 -15 -11 -27 -15 -27 -4 0 -18 25 -31 55 -13 30 -30
57 -37 60 -18 7 -111 -14 -153 -36 l-36 -18 -38 34 c-28 23 -56 37 -98 45 -33
6 -61 17 -64 26 -3 8 7 30 21 48 30 40 33 51 9 41 -10 -4 -36 -8 -58 -9 -38
-1 -40 -2 -39 -34 1 -27 -2 -32 -15 -26 -39 18 -81 8 -128 -33 -27 -22 -49
-50 -51 -62 -3 -18 1 -21 32 -21 50 0 61 -25 35 -75 -20 -36 -20 -41 -5 -72
11 -24 29 -39 62 -54 26 -11 49 -17 52 -14 3 3 13 22 23 43 l17 37 1 -52 c1
-28 4 -54 9 -56 4 -3 36 -6 72 -8 l65 -4 -1 40 c0 27 -10 54 -27 80 -30 44
-35 90 -11 99 9 3 33 6 54 6 60 0 70 -7 70 -51 0 -27 4 -39 14 -39 23 0 28
-34 16 -101 -6 -33 -10 -92 -8 -131 2 -52 -1 -71 -12 -78 -18 -12 -47 -13 -52
-2 -1 4 -33 22 -70 40 -47 22 -81 32 -115 32 -56 0 -127 -30 -143 -60 -10 -18
-17 -20 -59 -14 -29 4 -51 2 -55 -4 -8 -14 3 -42 18 -42 6 0 18 -5 26 -10 13
-8 12 -11 -5 -25 -20 -15 -20 -16 10 -41 17 -14 48 -34 71 -45 38 -18 64 -52
64 -83 0 -7 9 -25 20 -39 11 -14 20 -32 20 -41 0 -9 4 -16 9 -16 5 0 14 -13
21 -29 6 -16 19 -36 28 -45 13 -11 17 -32 17 -80 0 -63 9 -83 32 -68 5 4 29
47 53 95 l44 89 35 -6 c20 -3 56 -16 81 -28 l45 -22 -28 -28 c-29 -28 -33 -58
-9 -66 7 -2 33 16 58 41 37 38 44 49 35 64 -12 24 -4 36 35 56 l30 16 32 -42
c67 -86 85 -120 74 -138 -17 -26 -26 -89 -13 -89 6 0 14 12 17 26 5 18 12 24
24 21 12 -3 29 8 50 31 47 53 57 31 26 -57 -26 -75 -50 -119 -86 -160 -39 -46
-19 -56 30 -15 17 15 46 56 65 93 18 36 45 77 60 91 15 14 30 34 34 44 6 15
19 19 64 21 60 2 73 -10 36 -33 -40 -25 -8 -75 37 -58 13 5 12 10 -3 33 l-17
28 22 -19 c22 -19 23 -19 50 6 63 58 107 71 166 49 17 -7 26 -7 30 2 3 8 10 5
21 -8 42 -53 56 -65 76 -65 12 0 56 35 113 91 87 85 177 149 210 149 16 0 76
-47 76 -60 0 -4 -13 -13 -29 -19 -15 -7 -43 -28 -61 -46 l-34 -35 35 12 c19 6
57 19 84 29 103 38 95 41 168 -59 84 -116 90 -128 84 -171 -6 -45 -72 -191
-86 -191 -6 0 -8 7 -5 15 3 8 -5 41 -17 75 -19 47 -30 62 -53 70 -16 5 -30 10
-31 10 -2 0 -8 -20 -14 -44 -6 -25 -19 -51 -30 -58 -10 -7 -26 -28 -35 -46
-21 -41 -34 -46 -84 -33 -81 22 -88 -8 -11 -51 45 -25 52 -44 12 -33 -37 10
-109 8 -130 -3 -14 -9 -14 -11 5 -28 12 -10 22 -30 22 -45 0 -25 -3 -26 -69
-33 -40 -3 -81 -2 -96 4 -14 5 -43 10 -62 10 -20 0 -56 9 -80 21 -26 12 -53
19 -66 15 -12 -3 -36 0 -53 6 -26 9 -38 8 -75 -10 -25 -12 -65 -28 -91 -36
-41 -12 -124 -64 -115 -72 2 -2 30 8 63 21 38 16 69 23 87 19 23 -5 35 0 58
22 16 15 31 25 35 22 12 -13 -46 -104 -82 -128 -21 -14 -39 -30 -41 -36 -8
-23 41 -22 98 2 67 28 92 30 109 9 10 -13 7 -17 -21 -29 -62 -25 -148 -39
-177 -27 -16 6 -51 7 -86 3 -55 -6 -61 -10 -78 -42 -23 -42 -78 -100 -78 -82
0 7 6 23 14 35 8 12 19 46 25 76 15 73 2 85 -41 37 -40 -46 -117 -110 -124
-103 -3 2 4 28 16 56 20 53 26 91 13 91 -5 0 -26 -27 -48 -60 -38 -57 -65 -76
-65 -46 0 7 6 19 14 25 17 14 28 51 15 51 -5 0 -21 -7 -35 -16 -42 -28 -38 -7
7 35 24 23 38 41 31 41 -14 0 -95 -50 -100 -62 -10 -22 -32 -4 -38 30 -4 20
-14 42 -23 48 -14 11 -14 15 -1 39 8 15 33 47 56 72 41 44 41 44 106 42 62 -2
70 1 194 66 71 37 143 77 159 89 38 27 75 69 68 79 -6 9 -94 -37 -145 -75 -63
-49 -167 -90 -261 -104 -102 -15 -143 -37 -192 -101 -31 -41 -34 -43 -44 -24
-8 13 -8 28 -1 46 12 32 13 75 2 93 -14 22 -70 -10 -111 -64 -22 -29 -44 -48
-54 -46 -23 4 -33 -59 -18 -120 6 -27 11 -61 11 -76 0 -32 98 -232 117 -239 8
-3 20 -20 29 -37 22 -47 37 -69 61 -93 19 -19 22 -33 22 -114 0 -90 3 -104 22
-104 5 0 9 -3 10 -7 0 -4 4 -21 9 -37 12 -42 -11 -47 -52 -13 -18 15 -35 30
-36 35 -4 8 -58 38 -67 37 -3 -1 -25 21 -48 47 -63 71 -82 90 -97 95 -12 4
-12 10 -1 45 19 57 10 75 -35 71 -34 -3 -37 -1 -65 52 -16 30 -35 62 -43 70
-8 9 -29 42 -46 75 -17 33 -41 74 -54 92 -13 17 -28 56 -34 86 -6 31 -25 81
-42 113 -16 31 -30 66 -30 78 0 40 -12 63 -39 79 -39 23 -48 85 -20 139 22 44
19 88 -12 150 -11 21 -19 58 -19 87 0 66 -20 153 -38 168 -12 10 -11 16 6 38
17 22 19 30 9 46 -9 14 -9 26 0 49 11 28 9 33 -13 52 -13 12 -24 27 -24 34 0
7 -8 18 -17 23 -16 9 -14 10 8 11 42 0 53 22 45 93 -4 34 -15 70 -23 80 -15
15 -15 24 0 100 9 45 18 100 21 122 2 22 11 63 21 90 61 184 76 236 70 245
-12 20 -24 9 -40 -37 -9 -27 -25 -64 -36 -83 -24 -43 -22 -32 31 140 21 69 45
148 53 175 8 28 20 49 27 47 6 -1 9 2 5 7 -3 6 1 21 10 34 8 13 13 26 9 29 -3
3 0 9 7 14 8 5 10 3 4 -6 -6 -9 -4 -11 4 -6 7 5 10 14 7 22 -3 8 1 14 8 14 7
0 18 11 24 25 15 33 15 38 0 29 -7 -4 -2 10 11 32 35 57 60 101 101 174 106
189 139 235 174 244 31 8 41 34 21 57 -15 16 -12 23 53 96 93 105 427 442 477
481 249 196 274 213 463 336 139 90 394 220 552 280 69 26 136 52 150 58 156
63 475 141 736 179 220 32 332 38 639 34 252 -4 310 -8 445 -30z m-1215 -1630
c-34 -16 -71 -19 -79 -6 -10 15 7 21 58 20 l51 -1 -30 -13z m809 -123 c-20
-49 -62 -112 -74 -112 -14 0 -14 1 31 84 41 77 72 96 43 28z m1776 -291 c0 -5
-7 -11 -15 -15 -9 -3 -15 0 -15 9 0 8 7 15 15 15 8 0 15 -4 15 -9z m-4190
-386 c0 -8 -4 -15 -10 -15 -5 0 -7 7 -4 15 4 8 8 15 10 15 2 0 4 -7 4 -15z
m-102 -223 c4 -24 -20 -30 -47 -13 -12 8 -13 12 -1 26 18 22 44 15 48 -13z
m-125 -25 c52 -45 55 -63 13 -90 -22 -15 -40 -13 -123 9 -7 2 -13 12 -13 23 0
23 49 101 64 101 6 0 33 -19 59 -43z m4078 -57 c5 0 9 -4 9 -10 0 -15 -20 -12
-38 7 -16 16 -16 16 1 10 10 -4 23 -7 28 -7z m45 -17 c-10 -10 -19 5 -10 18 6
11 8 11 12 0 2 -7 1 -15 -2 -18z m-3986 2 c0 -8 -4 -15 -10 -15 -5 0 -16 -13
-25 -30 -17 -33 -35 -40 -35 -13 0 17 47 73 62 73 4 0 8 -7 8 -15z m136 -26
c28 -23 4 -199 -28 -199 -18 0 -53 23 -81 54 -26 28 -28 37 -25 83 6 72 20 86
77 78 25 -4 51 -11 57 -16z m3894 11 c0 -5 -4 -10 -10 -10 -5 0 -10 5 -10 10
0 6 5 10 10 10 6 0 10 -4 10 -10z m-3263 -56 c8 -21 -23 -52 -38 -37 -8 8 -8
17 0 32 14 25 29 27 38 5z m-205 -11 c8 -10 18 -26 21 -35 3 -9 39 -39 79 -65
91 -61 95 -79 16 -76 -49 2 -58 -1 -58 -15 0 -9 17 -26 37 -37 47 -25 56 -55
18 -55 -36 0 -65 -17 -65 -39 0 -10 -11 -38 -24 -63 -13 -25 -27 -60 -31 -79
-13 -68 -15 -71 -41 -65 -16 4 -24 2 -24 -6 0 -7 -7 -2 -16 10 -20 30 -40 28
-51 -5 l-9 -26 -42 37 c-49 45 -66 40 -59 -17 7 -52 -15 -110 -40 -105 -14 3
-17 12 -15 40 1 20 -2 39 -8 43 -5 3 -10 25 -10 49 0 57 -17 103 -41 109 -22
6 -26 45 -4 53 7 3 22 27 31 52 20 55 68 121 106 149 15 11 51 46 79 78 74 85
119 105 151 68z m-1787 -345 c0 -304 19 -510 70 -753 9 -38 15 -82 15 -97 0
-15 5 -38 11 -52 10 -20 9 -28 -5 -41 -18 -18 -22 -40 -6 -30 7 4 9 -2 5 -18
-5 -19 -2 -25 16 -30 14 -4 20 -11 16 -21 -3 -8 -2 -18 2 -20 14 -9 21 -64 11
-88 -7 -18 -9 -19 -9 -5 -1 9 -9 17 -18 17 -13 0 -14 -3 -5 -12 19 -19 14 -28
-18 -28 -24 0 -30 -4 -31 -22 l-2 -23 -4 23 c-3 14 -12 22 -24 22 -12 0 -19 7
-19 20 0 13 -7 20 -20 20 -17 0 -20 7 -20 40 0 34 -3 40 -20 40 -26 0 -27 5
-35 113 -7 92 -22 116 -27 45 -2 -24 -7 51 -12 166 -7 169 -6 210 5 216 13 9
15 76 3 133 -4 19 -2 27 8 27 10 0 14 22 16 91 1 82 9 122 33 184 10 27 19 85
25 170 6 79 23 165 33 165 3 0 6 -114 6 -252z m1295 161 c0 -5 8 -17 18 -27
47 -50 72 -83 72 -98 0 -13 -5 -12 -30 6 l-29 21 -21 -21 c-12 -12 -27 -19
-33 -17 -16 5 -20 139 -5 148 14 9 28 2 28 -12z m140 -31 c0 -9 4 -8 10 2 8
12 10 11 10 -7 0 -14 -6 -23 -15 -23 -8 0 -15 2 -15 4 0 2 -3 11 -6 20 -3 9
-1 16 5 16 6 0 11 -6 11 -12z m-802 -95 c-2 -20 -9 -29 -25 -31 -27 -4 -31 19
-7 42 23 24 36 19 32 -11z m765 -215 c15 -22 3 -45 -34 -63 -26 -14 -33 -15
-40 -3 -17 27 -9 57 19 72 31 17 42 16 55 -6z m3461 -100 c9 -35 7 -73 -3 -62
-13 14 -23 84 -13 84 5 0 12 -10 16 -22z m-42 -82 c19 -8 39 -21 45 -28 15
-18 43 -128 43 -170 0 -45 38 -63 103 -48 45 10 95 1 125 -23 8 -6 17 -5 27 3
11 9 32 11 70 6 39 -4 66 -2 91 9 20 8 40 15 45 15 5 0 9 -47 9 -104 0 -78 4
-106 15 -116 8 -6 19 -9 25 -5 12 7 40 -12 40 -27 0 -5 -9 -7 -19 -3 -28 9
-32 -5 -16 -71 8 -32 14 -72 15 -87 0 -41 16 -24 24 25 4 24 14 62 24 85 16
41 18 42 54 37 31 -5 41 -2 62 21 23 24 34 28 110 32 118 8 168 -7 204 -60 15
-23 58 -66 95 -96 38 -31 73 -63 78 -72 6 -11 2 -36 -11 -74 -11 -32 -20 -66
-20 -76 0 -22 -31 -54 -39 -41 -10 15 -44 30 -96 41 -87 18 -199 51 -209 61
-8 8 30 30 53 30 4 0 31 7 59 15 56 17 67 38 36 69 -12 13 -30 14 -92 10 -42
-4 -86 -12 -98 -19 -11 -7 -31 -15 -45 -17 -18 -2 -24 -9 -24 -30 -1 -19 2
-24 10 -18 8 6 19 2 34 -11 21 -20 21 -23 7 -37 -9 -9 -30 -21 -48 -26 -31
-10 -33 -14 -36 -62 -2 -38 2 -56 16 -74 l19 -23 41 41 c63 63 158 82 188 37
8 -13 13 -28 10 -33 -3 -5 -34 -12 -68 -15 -65 -7 -105 -34 -93 -64 3 -7 8
-19 11 -27 3 -8 -3 -16 -18 -19 -21 -6 -47 -43 -61 -89 -8 -24 14 -47 49 -50
23 -1 30 -6 27 -18 -2 -8 2 -23 9 -33 11 -15 20 -16 53 -9 35 7 41 12 46 42 4
19 7 26 8 14 0 -11 15 -33 31 -49 17 -16 30 -37 30 -46 0 -15 -4 -17 -29 -8
-21 7 -49 7 -93 -1 -35 -6 -82 -14 -105 -17 l-42 -5 -51 77 c-27 43 -50 85
-50 95 0 10 -9 28 -20 41 l-19 24 -1 -78 c0 -72 2 -80 28 -104 15 -14 43 -33
62 -42 39 -18 117 -88 87 -77 -65 22 -67 21 -67 -22 0 -45 -20 -72 -52 -72
-18 0 -19 -4 -13 -49 7 -52 -5 -72 -30 -51 -11 9 -12 17 -5 30 5 10 7 31 4 47
-5 25 -2 29 28 38 29 9 33 15 36 47 3 31 -1 40 -25 55 -15 10 -34 26 -42 36
-7 10 -19 16 -26 13 -10 -3 -13 3 -12 22 2 21 -3 28 -21 30 -19 3 -23 8 -17
25 3 12 9 45 12 72 3 28 12 58 21 68 8 9 13 20 10 23 -15 14 -137 35 -276 46
-190 15 -302 3 -401 -43 -59 -28 -64 -32 -46 -42 11 -6 57 -11 104 -11 l84 1
-24 -19 c-13 -11 -57 -35 -96 -54 -81 -38 -96 -64 -38 -64 40 0 42 -5 16 -39
-16 -21 -24 -23 -62 -18 -24 3 -55 9 -67 13 -21 6 -23 4 -20 -17 3 -21 8 -24
58 -26 30 -1 77 5 104 12 49 15 140 67 154 89 8 14 127 106 136 106 16 0 -11
-59 -41 -91 -21 -22 -31 -39 -24 -43 15 -9 86 64 95 96 3 15 20 43 36 62 17
18 30 39 30 45 0 6 5 11 11 11 20 0 1 -111 -31 -175 -25 -52 -27 -62 -14 -76
24 -27 16 -109 -11 -109 -20 0 -28 35 -21 85 4 26 3 46 -3 49 -6 4 -28 -9 -49
-29 -42 -37 -112 -72 -112 -55 0 17 -30 11 -76 -16 -48 -28 -64 -50 -64 -85 0
-19 -4 -21 -33 -16 -31 5 -134 61 -149 82 -4 5 -8 20 -8 33 0 13 -6 22 -15 22
-10 0 -15 -11 -15 -35 0 -31 -3 -35 -37 -41 -20 -4 -63 -18 -95 -30 -66 -27
-100 -30 -117 -10 -6 7 -30 16 -54 19 -23 3 -53 9 -66 13 -22 6 -23 5 -17 -19
11 -44 0 -56 -39 -44 -46 14 -59 6 -74 -42 -8 -29 -20 -45 -37 -51 -30 -12
-32 -47 -4 -83 16 -20 36 -28 90 -38 66 -12 72 -11 98 8 15 11 38 23 50 27 12
4 30 18 38 32 20 30 54 32 54 4 0 -13 -10 -25 -27 -32 -16 -7 -42 -24 -60 -39
-20 -17 -39 -26 -52 -22 -25 6 -51 -34 -26 -43 8 -3 21 -4 29 -1 21 8 69 -40
61 -61 -3 -9 -12 -40 -20 -68 -18 -69 -41 -111 -68 -125 -12 -7 -25 -16 -28
-22 -6 -9 -41 -18 -143 -36 -26 -4 -65 -5 -85 0 -20 5 -44 6 -54 3 -9 -3 -29
3 -45 14 -15 10 -38 25 -52 32 l-25 13 21 -24 c12 -13 24 -41 27 -63 l6 -39
-23 22 c-12 11 -34 21 -49 21 -15 0 -46 10 -71 21 -47 24 -88 20 -67 -5 7 -8
37 -24 68 -37 l55 -22 -43 -23 c-30 -15 -54 -20 -76 -17 -20 4 -33 1 -33 -5 0
-15 -114 -56 -118 -43 -2 6 -10 11 -18 11 -19 0 -97 -41 -107 -57 -11 -17 -27
-17 -27 1 0 8 9 35 19 59 14 33 26 46 43 49 34 5 30 33 -4 31 -35 -2 -35 11
-3 53 14 18 25 35 25 38 0 2 -26 14 -57 26 -32 12 -71 27 -88 34 -16 7 -42 18
-57 24 -16 7 -28 17 -28 25 0 7 -39 51 -86 97 -82 82 -85 83 -69 45 21 -53 52
-99 114 -170 66 -75 66 -103 1 -118 -27 -7 -58 -56 -67 -107 -7 -40 -20 -44
-31 -10 -12 34 -7 60 13 60 6 0 20 17 29 39 15 33 16 42 5 60 -20 31 -31 26
-24 -13 4 -19 2 -36 -3 -40 -14 -8 -19 1 -27 47 -6 30 -4 37 9 37 20 0 20 5 0
35 -16 25 -44 34 -44 15 0 -14 -27 -13 -36 2 -4 6 0 16 9 23 24 17 21 23 -10
18 -52 -9 -60 -13 -40 -24 9 -6 17 -15 17 -22 0 -7 6 -24 13 -38 13 -23 11
-28 -20 -59 -18 -19 -33 -38 -33 -42 0 -17 20 -7 49 24 23 25 33 30 42 21 16
-16 -52 -116 -100 -149 -47 -32 -52 -21 -10 22 l34 36 -52 -27 c-28 -14 -57
-33 -64 -41 -16 -20 -63 -44 -85 -44 -28 0 40 64 103 97 54 28 72 50 31 37
-13 -3 -49 -20 -81 -36 -33 -16 -57 -25 -54 -21 3 5 -15 15 -41 22 l-47 13 45
23 c25 13 54 24 66 25 11 0 42 7 68 16 34 12 45 19 37 27 -8 8 -28 8 -69 -1
-71 -15 -107 -15 -133 -2 -21 12 -26 30 -7 30 6 0 40 14 76 31 35 17 87 38
115 45 l52 13 -55 -4 c-30 -3 -70 -8 -88 -11 -29 -6 -33 -4 -30 12 2 11 13 20
25 22 12 2 27 10 33 18 10 12 7 14 -18 14 -17 0 -32 -5 -34 -12 -5 -14 -118
-23 -118 -9 0 11 55 31 86 31 19 0 23 6 26 38 l3 37 55 -4 c59 -3 63 6 8 19
-18 4 -42 11 -52 16 -14 5 -17 4 -11 -5 5 -10 2 -11 -12 -7 -14 5 -39 -13
-101 -73 -45 -43 -82 -73 -82 -65 0 7 5 16 10 19 12 7 14 55 2 55 -4 0 -12
-10 -17 -22 -6 -13 -27 -26 -55 -34 -58 -18 -60 -17 -60 4 0 10 -18 36 -40 57
l-40 39 6 -46 c6 -44 4 -49 -30 -84 -19 -20 -33 -40 -31 -45 3 -4 0 -28 -7
-53 l-12 -45 -90 -3 c-107 -4 -126 -1 -126 19 0 11 -7 14 -22 9 -36 -9 -86 14
-99 46 -6 16 -18 32 -26 37 -17 9 -32 70 -33 130 0 48 -21 81 -52 81 -10 0
-18 7 -18 15 0 8 -7 15 -15 15 -8 0 -15 -4 -15 -9 0 -11 -62 -21 -72 -12 -4 4
-2 23 4 44 9 29 16 37 35 37 20 0 23 -3 17 -27 -6 -27 -6 -27 9 -8 20 24 22
54 5 56 -7 1 -48 2 -91 3 -78 1 -79 1 -84 -26 -7 -35 -21 -36 -33 -2 -14 35
-12 78 2 92 10 10 7 12 -12 10 -16 -2 -25 3 -28 14 -4 21 64 98 87 98 10 0 25
6 35 13 17 13 16 14 -12 26 -18 8 -59 11 -99 9 l-68 -3 0 41 c0 26 -7 49 -18
61 -26 29 -21 68 20 169 40 97 75 134 127 134 27 0 42 -15 26 -25 -11 -7 -14
-45 -4 -45 3 0 19 9 35 21 23 16 38 19 68 14 56 -9 57 16 6 81 -22 29 -55 75
-73 104 -38 61 -31 80 27 80 32 0 40 -5 53 -32 9 -18 48 -72 86 -120 39 -47
68 -89 64 -92 -3 -3 -18 -6 -33 -6 -15 0 -31 -5 -34 -11 -8 -12 22 -49 40 -49
7 0 18 -7 25 -15 19 -23 30 -18 30 15 0 17 4 30 10 30 5 0 7 -6 4 -13 -6 -16
61 -81 75 -73 6 4 11 18 11 32 0 22 3 24 54 24 32 0 56 -5 58 -11 6 -17 118
17 118 36 0 8 5 15 10 15 6 0 10 9 10 20 0 50 61 25 130 -53 35 -39 39 -48 25
-53 -9 -4 -28 2 -43 13 -43 31 -63 35 -88 18 -16 -10 -51 -16 -104 -17 -62 -1
-84 -6 -96 -19 -23 -26 -9 -39 42 -39 35 0 50 -5 63 -21 17 -21 18 -21 43 -5
23 15 36 16 102 7 42 -6 87 -18 100 -26 22 -15 29 -15 73 0 28 9 72 15 99 13
54 -3 73 11 109 82 47 93 86 118 100 63 3 -13 17 -36 31 -50 l25 -25 19 25
c11 13 22 44 26 68 6 38 5 42 -8 32 -19 -16 -186 3 -207 23 -13 12 -12 16 4
34 17 19 17 21 1 39 -15 16 -27 18 -73 14 l-55 -6 2 29 c4 51 5 51 -82 48 -71
-3 -79 -2 -55 8 39 17 36 41 -5 34 -18 -3 -34 -10 -36 -15 -2 -6 -10 -11 -18
-11 -7 0 -20 -13 -29 -30 -9 -18 -23 -30 -35 -30 -10 0 -26 -10 -35 -22 -14
-21 -17 -21 -28 -7 -8 11 -22 15 -45 11 -27 -4 -32 -1 -32 16 0 11 11 34 25
50 14 17 25 33 25 38 0 4 8 16 17 26 15 17 15 20 -8 46 -14 15 -31 39 -37 55
-12 27 -56 56 -68 44 -4 -4 6 -19 22 -35 32 -32 77 -102 70 -109 -6 -6 -48 16
-61 32 -16 20 -88 43 -154 51 -66 7 -91 27 -91 71 0 22 3 23 43 17 84 -11 89
-13 82 -36 -8 -22 -5 -22 42 7 53 33 52 51 -7 85 -30 17 2 23 37 6 29 -14 38
-15 44 -4 5 7 9 16 9 21 0 4 6 7 14 7 8 0 29 19 47 43 44 56 47 58 98 55 41
-3 46 -6 53 -34 7 -27 20 -37 81 -68 41 -20 78 -36 83 -36 6 0 22 21 36 47 14
26 41 61 61 77 36 29 37 29 57 11 11 -10 19 -25 18 -33 -3 -17 58 -36 68 -21
3 5 -1 9 -9 9 -22 0 -41 26 -24 33 29 11 66 -7 102 -50 27 -32 40 -41 46 -32
5 9 10 4 15 -17 3 -16 15 -38 25 -49 10 -12 22 -35 25 -53 6 -31 5 -32 -27
-32 -28 0 -43 11 -100 71 -73 78 -93 83 -101 27 -7 -42 0 -58 23 -58 23 0 23
0 5 -36 -15 -28 -13 -44 5 -44 6 0 26 -11 46 -24 19 -14 42 -22 49 -19 8 3 25
-2 39 -11 13 -9 39 -15 57 -14 28 3 33 -1 36 -21 6 -36 -26 -98 -54 -105 -17
-5 -22 -11 -17 -24 9 -23 20 -30 71 -43 23 -7 49 -20 56 -31 9 -12 16 -15 20
-9 8 12 -30 67 -51 75 -14 6 -18 32 -5 39 4 3 21 8 38 11 27 6 37 2 71 -31 31
-30 44 -54 63 -118 29 -99 56 -154 87 -181 29 -24 28 -26 -70 -78 -74 -39
-149 -60 -184 -51 -12 3 -31 15 -42 27 l-20 21 -20 -24 c-25 -29 -26 -52 -5
-73 24 -25 34 -19 27 15 -6 29 -4 31 18 24 33 -10 49 -25 60 -53 5 -13 13 -21
19 -17 5 3 25 -28 45 -70 26 -54 42 -76 58 -79 12 -2 56 -9 97 -15 41 -6 101
-16 133 -23 38 -7 61 -8 67 -2 15 15 -45 100 -95 134 -40 27 -55 47 -55 72 0
6 7 7 16 4 8 -3 12 -2 9 4 -4 6 6 10 23 10 32 0 42 14 42 61 0 21 -5 29 -18
29 -10 0 -30 13 -45 28 -21 22 -24 31 -15 40 7 7 18 12 24 12 7 0 19 7 28 15
23 23 2 60 -48 83 -55 26 -75 50 -91 111 -7 28 -22 67 -34 86 -11 19 -23 51
-27 72 -4 21 -13 50 -20 65 -20 40 -18 75 6 83 29 9 42 -2 28 -25 -19 -29 -4
-34 53 -15 53 18 68 13 69 -22 0 -7 6 -13 14 -13 18 0 25 -20 27 -85 4 -73 -8
-115 -37 -125 -13 -5 -24 -17 -24 -26 0 -16 1 -16 18 -1 27 25 52 21 111 -18
29 -19 55 -35 58 -35 4 0 2 16 -11 85 -1 6 -8 28 -15 49 -13 37 -12 41 8 57
12 10 39 21 59 24 20 3 58 12 83 20 75 24 133 19 200 -17 52 -27 64 -30 92
-21 20 6 42 6 57 1 18 -7 26 -5 32 7 6 9 23 15 43 15 28 0 36 4 41 24 8 33 31
40 51 16 10 -11 26 -20 35 -20 10 0 23 -11 28 -25 7 -18 17 -25 35 -25 14 0
25 5 25 10 0 6 13 10 28 10 20 0 33 7 41 23 40 76 258 144 276 87 7 -23 25
-27 25 -5 0 8 5 15 10 15 6 0 10 4 10 9 0 5 -23 15 -50 22 -100 26 -85 68 24
70 l61 1 -60 13 c-83 17 -94 23 -100 54 -3 14 -13 47 -21 73 -24 72 -3 98 78
98 37 0 39 2 36 27 -3 28 21 47 89 71 38 13 63 -4 63 -41 0 -12 4 -29 10 -37
8 -12 10 -12 15 2 4 9 6 22 4 29 -4 36 1 41 35 35 24 -5 39 -2 55 12 20 15 21
21 11 42 -18 38 -88 90 -120 90 -20 0 -35 9 -50 30 -63 89 46 174 162 126z
m-4965 -288 c-3 -7 -5 -2 -5 12 0 14 2 19 5 13 2 -7 2 -19 0 -25z m2868 -58
c3 -5 15 -10 26 -10 28 0 23 -16 -10 -30 -28 -11 -91 -6 -91 8 0 3 7 14 17 24
18 20 48 24 58 8z m280 -160 c6 -10 -34 -30 -61 -30 -24 0 -11 24 17 31 35 10
37 10 44 -1z m3706 -127 c-2 -52 -7 -72 -22 -86 -10 -10 -19 -25 -19 -35 0
-40 -37 -111 -84 -160 -57 -60 -85 -77 -139 -87 -30 -6 -37 -4 -37 9 0 9 5 16
10 16 6 0 10 12 9 28 -3 38 11 92 23 92 5 0 8 10 7 23 -2 12 3 32 9 45 7 12
10 22 7 22 -24 0 171 205 201 212 31 7 37 -8 35 -79z m-3694 47 c18 0 73 -50
73 -66 0 -8 -10 -14 -26 -14 -20 0 -24 -4 -19 -19 3 -11 1 -22 -5 -26 -9 -6
-14 7 -11 28 0 4 -3 7 -8 7 -12 0 -46 48 -56 79 -7 22 -5 23 16 18 13 -4 29
-7 36 -7z m-1668 -185 c-28 -46 -49 -68 -49 -51 0 15 36 85 53 104 34 37 32 6
-4 -53z m137 17 c-27 -52 -66 -70 -51 -23 8 27 32 51 51 51 13 0 13 -4 0 -28z
m-361 -61 c-3 -6 -11 -11 -17 -11 -6 0 -6 6 2 15 14 17 26 13 15 -4z m943 -28
c2 -8 -6 -13 -22 -13 -25 0 -33 10 -19 24 10 10 36 3 41 -11z m-1940 -53 c1
-22 -3 -40 -8 -40 -6 0 -10 18 -10 40 0 22 4 40 8 40 5 0 9 -18 10 -40z m1417
-71 c10 -15 -1 -23 -20 -15 -9 3 -13 10 -10 16 8 13 22 13 30 -1z m-1425 -13
c0 -2 -3 -11 -6 -20 -9 -23 -24 -20 -24 4 0 11 7 20 15 20 8 0 15 -2 15 -4z
m5194 -70 c37 -8 70 -17 72 -19 3 -2 0 -16 -6 -31 -5 -15 -10 -41 -10 -57 0
-16 -7 -41 -16 -54 -9 -14 -13 -32 -10 -42 4 -9 2 -50 -5 -90 -16 -102 -33
-84 -25 27 4 47 3 119 0 158 -6 60 -10 72 -25 72 -10 0 -20 -8 -22 -17 -15
-54 -16 -74 -3 -104 7 -19 11 -52 9 -74 -6 -59 -71 -161 -89 -142 -8 8 10 100
32 160 14 40 15 52 4 71 -14 27 -10 137 5 148 13 10 9 10 89 -6z m-2724 -107
c0 -11 -4 -17 -10 -14 -5 3 -10 15 -10 26 0 11 5 17 10 14 6 -3 10 -15 10 -26z
m2857 -289 c-1 -8 -11 -15 -22 -15 -21 0 -35 35 -26 69 4 17 7 16 28 -10 13
-16 22 -36 20 -44z m150 -46 c-9 -9 -28 6 -21 18 4 6 10 6 17 -1 6 -6 8 -13 4
-17z m-943 -57 c33 10 35 10 45 -18 5 -16 7 -44 4 -64 -7 -42 8 -45 76 -15 52
24 106 26 115 5 3 -8 17 -15 31 -15 34 0 33 -26 -5 -78 -36 -51 -60 -53 -114
-12 -22 16 -54 33 -73 36 -19 4 -33 12 -33 20 0 10 -16 4 -53 -19 -64 -41 -94
-49 -137 -37 -25 7 -39 6 -54 -4 -12 -7 -52 -16 -89 -19 -54 -5 -69 -3 -73 8
-8 19 26 75 45 75 8 0 27 12 42 26 25 24 29 25 44 11 22 -23 48 -10 42 20 -3
18 3 29 27 46 57 41 68 44 97 33 19 -7 38 -6 63 1z m356 -157 c6 -11 8 -36 4
-55 -5 -31 -4 -35 14 -35 14 0 24 -10 31 -31 12 -34 15 -137 5 -163 -8 -21
-24 -20 -24 2 -1 23 -26 56 -38 48 -5 -3 -15 -19 -22 -35 -13 -34 -9 -42 43
-75 54 -36 20 -64 -48 -40 -33 11 -41 10 -63 -4 -15 -9 -27 -16 -29 -14 -2 1
-10 2 -19 2 -14 0 -14 -3 -4 -15 7 -8 21 -15 31 -15 29 0 32 -19 4 -30 -46
-17 -75 -12 -105 20 -15 17 -33 30 -39 30 -6 0 -11 11 -11 24 0 17 -9 29 -31
40 -28 14 -33 14 -55 0 -26 -18 -27 -16 -24 34 3 53 -45 90 -52 40 -2 -16 -9
-22 -20 -20 -10 2 -18 -1 -19 -5 -10 -96 -51 -132 -180 -159 -82 -17 -114 -8
-167 49 -35 36 -34 40 9 50 14 4 32 19 40 34 8 16 24 43 36 62 13 19 28 51 34
73 5 21 18 42 27 45 9 3 24 11 32 18 18 15 93 42 137 49 48 8 53 -23 14 -71
-38 -45 -38 -52 -6 -45 14 2 25 8 25 12 0 5 15 19 32 32 31 21 40 23 163 19
71 -1 134 -6 140 -9 19 -12 57 -13 71 -1 24 19 16 31 -16 24 -43 -9 -39 12 10
63 22 22 40 48 40 56 0 22 17 20 30 -4z m-3283 -82 c-3 -8 -6 -5 -6 6 -1 11 2
17 5 13 3 -3 4 -12 1 -19z m72 -140 c1 -14 -5 -16 -31 -11 -18 3 -34 6 -35 7
-6 4 -11 60 -7 68 8 13 72 -44 73 -64z m1211 -58 c0 -5 -7 -10 -15 -10 -8 0
-15 5 -15 10 0 6 7 10 15 10 8 0 15 -4 15 -10z m2392 -50 c23 -7 39 -19 43
-32 8 -22 -9 -40 -30 -31 -7 2 -23 -12 -35 -32 -23 -38 -80 -80 -123 -91 -14
-3 -33 -14 -43 -25 -9 -10 -21 -19 -26 -19 -16 0 -8 49 11 67 20 19 33 80 19
89 -13 8 -9 54 5 54 8 0 22 9 33 20 21 22 70 22 146 0z m-2382 -69 c0 -14 -44
-80 -52 -81 -13 0 -9 29 7 60 14 28 45 42 45 21z m780 -100 c0 -13 -28 -22
-35 -11 -3 4 1 11 7 13 20 8 28 8 28 -2z m-85 -41 c-3 -5 -15 -15 -26 -21 -19
-10 -20 -9 -9 10 6 12 18 21 26 21 8 0 12 -4 9 -10z m-705 -14 c0 -2 -7 -9
-15 -16 -13 -11 -14 -10 -9 4 5 14 24 23 24 12z m678 -56 c6 0 12 -4 12 -8 0
-9 -164 -52 -198 -52 -20 0 -39 16 -29 26 2 2 33 9 68 15 35 7 71 15 79 20 8
5 24 7 35 4 11 -3 26 -5 33 -5z m750 -149 c8 -5 12 -22 10 -42 -3 -31 -6 -34
-39 -37 -32 -3 -40 2 -68 37 -22 27 -27 41 -19 44 21 9 102 7 116 -2z m3756
-1491 c108 -109 109 -110 91 -130 -19 -21 -20 -20 -132 92 -106 105 -111 113
-96 130 9 10 19 18 22 18 3 0 55 -50 115 -110z m-79 -80 l110 -110 -220 -220
-220 -220 -112 112 -113 113 217 217 c120 120 220 218 223 218 3 0 55 -50 115
-110z m-527 -25 c6 -14 18 -25 27 -25 23 0 18 -16 -10 -28 -14 -6 -25 -18 -25
-27 0 -23 -16 -18 -28 10 -6 14 -18 25 -27 25 -23 0 -18 16 10 28 14 6 25 18
25 27 0 23 16 18 28 -10z m640 -330 c10 -25 22 -37 47 -47 42 -15 44 -24 8
-33 -38 -9 -51 -21 -58 -56 -9 -38 -24 -37 -32 2 -5 25 -15 35 -44 48 -22 9
-39 19 -39 23 0 3 16 12 35 18 25 8 37 20 47 46 6 19 15 34 18 34 3 0 12 -16
18 -35z m-593 -125 c108 -109 109 -109 90 -130 l-19 -21 -113 113 c-106 105
-111 113 -96 130 9 10 19 18 22 18 4 0 56 -49 116 -110z"/>
<path d="M5840 8508 c-21 -34 -34 -99 -28 -139 1 -13 15 -30 30 -39 25 -13 29
-13 44 2 12 12 17 31 16 63 -1 25 5 59 13 76 22 41 11 69 -26 69 -22 0 -34 -8
-49 -32z"/>
<path d="M4670 8212 c0 -15 46 -52 63 -52 23 0 21 13 -6 38 -23 22 -57 30 -57
14z"/>
<path d="M4986 8161 c-3 -5 17 -30 45 -56 56 -52 57 -63 7 -113 -22 -23 -34
-49 -42 -89 -14 -70 -32 -83 -80 -61 -44 22 -85 91 -95 160 -9 64 -26 98 -49
98 -30 -1 -95 -54 -105 -85 -5 -16 -15 -37 -22 -45 -6 -8 -9 -28 -6 -45 6 -28
8 -29 53 -26 67 4 120 -16 177 -66 66 -58 107 -73 212 -80 87 -6 89 -6 98 19
5 14 33 40 63 58 93 59 125 89 147 136 27 56 21 68 -9 20 -12 -20 -26 -36 -31
-36 -6 0 -8 3 -5 8 10 17 -25 59 -71 82 -26 14 -49 31 -49 38 -1 6 -2 17 -3
22 0 6 -6 10 -13 10 -6 0 -19 6 -27 14 -35 31 -182 59 -195 37z"/>
<path d="M5830 8101 c0 -11 31 -24 39 -16 3 3 -1 10 -9 15 -19 12 -30 12 -30
1z"/>
<path d="M3593 8090 c-30 -12 -30 -48 -2 -135 23 -69 37 -79 75 -50 22 17 70
20 79 5 12 -19 45 -11 45 10 0 11 6 20 13 20 16 0 85 -48 107 -75 13 -16 95
-79 127 -98 7 -5 9 0 6 13 -3 11 -9 20 -13 20 -5 0 -12 9 -15 20 -3 11 -26 33
-49 49 -55 38 -128 114 -165 172 -24 38 -35 47 -67 52 -53 9 -114 8 -141 -3z"/>
<path d="M4406 8075 c9 -37 13 -45 25 -45 16 0 10 26 -12 51 l-21 24 8 -30z"/>
<path d="M4337 8015 c-15 -27 -26 -52 -25 -56 2 -4 18 5 37 20 30 25 33 31 24
56 l-9 29 -27 -49z"/>
<path d="M4482 7957 c-6 -6 -14 -26 -18 -42 -4 -17 -18 -46 -31 -65 -12 -19
-23 -43 -23 -54 0 -11 -21 -40 -47 -64 -44 -40 -48 -48 -47 -89 1 -39 -1 -44
-18 -40 -11 3 -22 -2 -28 -13 -17 -32 -40 -32 -78 0 -36 29 -64 36 -96 24 -13
-5 -9 -15 24 -54 22 -26 40 -50 40 -53 0 -8 -62 13 -75 24 -5 5 -15 9 -23 9
-10 0 -8 -7 7 -28 11 -16 23 -40 26 -55 4 -15 11 -30 16 -33 5 -3 9 -18 9 -34
0 -22 7 -33 29 -45 39 -20 74 -76 66 -108 -6 -21 -1 -27 26 -41 44 -22 60 -20
105 11 54 37 128 44 155 14 15 -16 27 -20 47 -15 47 12 72 23 72 33 0 12 -68
101 -92 121 -36 28 -3 61 76 75 19 4 47 18 61 31 35 33 91 32 136 -1 19 -14
46 -33 61 -42 15 -10 29 -25 31 -34 6 -21 47 -28 105 -18 74 14 71 10 55 86
-16 78 -9 116 32 177 31 46 31 58 3 54 -25 -3 -39 -27 -73 -123 -16 -45 -27
-61 -43 -63 -19 -3 -21 0 -16 27 7 36 -5 40 -31 11 -50 -55 -61 8 -16 92 27
51 30 68 11 68 -4 0 -13 -12 -19 -27 -7 -16 -25 -44 -41 -63 -25 -29 -29 -32
-30 -15 0 11 7 42 15 69 8 27 13 51 11 53 -6 6 -46 -20 -46 -29 0 -5 -5 -8
-11 -8 -7 0 -9 10 -7 24 4 18 0 26 -15 30 -10 2 -16 9 -13 15 4 5 2 12 -3 15
-5 3 -29 -17 -54 -44 -30 -33 -50 -48 -61 -44 -28 11 -56 86 -56 153 0 83 -28
141 -69 141 -16 0 -33 -6 -39 -13z m-26 -218 c8 -14 -18 -31 -30 -19 -9 9 0
30 14 30 5 0 12 -5 16 -11z"/>
<path d="M5900 7869 l-45 -21 28 -9 c26 -7 56 -34 57 -50 0 -3 -15 -10 -32
-15 -45 -13 -42 -36 7 -46 21 -5 49 -18 61 -29 13 -12 27 -18 33 -15 6 4 19
-2 31 -14 25 -25 30 -25 30 0 0 15 7 20 26 20 17 0 28 6 31 20 3 11 19 26 36
35 37 19 53 19 39 2 -6 -7 -9 -22 -7 -33 16 -77 15 -75 38 -68 12 4 39 6 60 5
20 -1 37 1 37 5 0 4 -16 24 -35 46 -35 38 -38 58 -9 58 8 0 14 4 14 9 0 5 -10
7 -21 4 -20 -6 -21 -3 -16 28 11 56 -1 64 -94 61 -70 -2 -83 -5 -100 -25 -14
-17 -18 -18 -19 -6 -1 49 -82 69 -150 38z"/>
<path d="M5520 7851 c-69 -52 -207 -111 -259 -111 -46 0 -14 -14 44 -19 6 -1
26 -15 45 -31 37 -32 52 -22 30 20 -22 41 20 50 63 12 24 -21 34 -7 12 18 -21
23 -21 23 25 42 39 16 100 65 100 79 0 15 -34 9 -60 -10z"/>
<path d="M3823 7803 c-19 -7 -4 -30 35 -55 59 -36 187 -97 192 -91 3 3 -3 10
-14 17 -10 6 -44 31 -75 54 -65 51 -121 81 -138 75z"/>
<path d="M3765 7740 c-17 -10 -41 -16 -56 -13 -22 4 -28 -1 -42 -30 -10 -19
-17 -39 -17 -44 0 -12 88 -43 121 -43 15 0 32 -7 39 -15 9 -11 22 -14 41 -10
19 4 39 0 58 -11 29 -17 32 -17 68 0 l38 18 -35 30 c-19 16 -62 46 -95 66 -33
20 -67 44 -75 53 -14 16 -17 16 -45 -1z"/>
<path d="M5248 7715 c-6 -7 19 -84 34 -102 20 -25 30 -14 23 25 -6 36 -45 89
-57 77z"/>
<path d="M4990 7686 c0 -8 5 -18 10 -21 6 -3 10 1 10 9 0 8 -4 18 -10 21 -5 3
-10 -1 -10 -9z"/>
<path d="M7107 7673 c-4 -3 2 -16 13 -28 l21 -22 -22 -37 c-11 -20 -18 -36
-14 -36 4 0 2 -6 -4 -14 -14 -17 -5 -43 20 -56 26 -15 98 -1 112 21 17 27 33
23 47 -11 8 -19 19 -30 29 -28 36 7 100 185 73 202 -6 3 -30 9 -55 12 -36 5
-48 3 -64 -13 -18 -18 -20 -18 -59 -1 -40 18 -85 23 -97 11z"/>
<path d="M5157 7663 c-2 -5 -10 -33 -17 -63 -7 -30 -17 -63 -22 -72 -6 -12 -5
-18 2 -18 12 0 48 78 57 121 5 25 -10 49 -20 32z"/>
<path d="M5211 7605 l1 -60 10 48 c8 35 7 52 -1 60 -8 8 -11 -5 -10 -48z"/>
<path d="M3066 7477 c-16 -15 -33 -27 -37 -27 -21 0 -6 -32 21 -48 30 -17 41
-42 18 -42 -9 0 -9 -3 0 -12 9 -9 16 -7 32 7 22 20 24 51 7 109 l-12 39 -29
-26z"/>
<path d="M5107 7493 c-11 -20 -15 -59 -8 -72 6 -9 11 -1 16 28 7 40 3 62 -8
44z"/>
<path d="M5590 7389 c-47 -10 -112 -27 -144 -37 -49 -16 -55 -20 -35 -25 13
-3 40 -2 59 3 177 45 262 68 267 74 12 11 -61 4 -147 -15z"/>
<path d="M2992 7368 c5 -13 38 -20 38 -8 0 4 -7 11 -16 14 -22 9 -26 8 -22 -6z"/>
<path d="M5630 7340 c-47 -10 -112 -28 -145 -40 -40 -14 -90 -23 -150 -25 -49
-2 -91 -7 -92 -12 -6 -19 37 -73 59 -73 22 -1 22 -1 5 -15 -18 -13 -18 -14 2
-34 12 -12 26 -21 31 -21 6 0 10 -6 10 -13 0 -8 10 -23 23 -35 29 -27 103 -30
150 -5 37 19 157 131 157 147 0 5 12 22 27 38 l26 27 -23 9 c-22 8 -22 9 14
30 20 12 36 26 36 32 0 14 -29 11 -130 -10z"/>
<path d="M7209 7296 c17 -18 35 -26 58 -26 62 0 34 34 -37 45 l-45 7 24 -26z"/>
<path d="M6010 7245 c-13 -16 -3 -20 24 -9 9 3 13 10 10 15 -8 13 -20 11 -34
-6z"/>
<path d="M3910 7220 c0 -5 7 -7 15 -4 8 4 15 8 15 10 0 2 -7 4 -15 4 -8 0 -15
-4 -15 -10z"/>
<path d="M3960 7160 c0 -24 21 -70 32 -70 9 0 11 51 2 74 -9 23 -34 20 -34 -4z"/>
<path d="M4410 7170 c0 -5 6 -10 14 -10 8 0 18 5 21 10 3 6 -3 10 -14 10 -12
0 -21 -4 -21 -10z"/>
<path d="M7976 7158 c-20 -29 -20 -72 -1 -88 21 -18 33 -3 35 45 5 72 -5 84
-34 43z"/>
<path d="M4320 7140 c0 -5 13 -10 29 -10 17 0 33 5 36 10 4 6 -8 10 -29 10
-20 0 -36 -4 -36 -10z"/>
<path d="M3885 7120 c3 -5 8 -10 11 -10 2 0 4 5 4 10 0 6 -5 10 -11 10 -5 0
-7 -4 -4 -10z"/>
<path d="M4041 7100 c-16 -14 -19 -20 -8 -20 8 0 25 9 38 20 17 13 19 19 9 19
-8 0 -26 -9 -39 -19z"/>
<path d="M7294 7065 c-18 -7 -35 -18 -38 -24 -10 -15 -57 -13 -79 4 -19 13
-40 11 -64 -8 -10 -7 -8 -17 6 -46 11 -20 21 -45 23 -56 4 -27 94 -87 132 -89
l31 -1 6 80 c3 44 12 92 19 108 18 37 4 49 -36 32z"/>
<path d="M2466 7024 c-17 -43 8 -273 31 -287 7 -4 13 -16 13 -25 0 -10 3 -13
8 -7 4 6 14 11 22 13 8 2 26 16 40 33 14 16 32 29 41 29 17 0 89 73 89 89 0
18 -25 26 -101 32 -49 3 -87 12 -104 23 -25 17 -27 22 -22 67 6 47 -4 66 -17
33z"/>
<path d="M8058 6994 c-38 -20 -39 -76 -3 -107 14 -12 47 -41 72 -64 26 -24 55
-43 64 -43 27 0 49 11 49 25 0 19 -40 50 -64 50 -17 0 -22 7 -24 35 -4 57 -11
79 -32 100 -24 24 -27 24 -62 4z"/>
<path d="M2753 6993 c-14 -5 -18 -63 -5 -63 17 0 44 39 39 55 -7 15 -13 17
-34 8z"/>
<path d="M7444 6975 c-29 -29 -63 -100 -64 -130 0 -47 52 -58 135 -30 47 16
66 14 61 -8 -1 -7 -1 -9 1 -4 9 16 30 6 42 -20 11 -24 10 -29 -8 -44 -21 -17
-28 -39 -12 -39 4 0 22 5 39 11 30 10 31 13 30 67 0 31 4 91 9 132 6 41 8 78
6 83 -2 4 -51 7 -109 7 -99 0 -106 -1 -130 -25z"/>
<path d="M7009 6835 c29 -19 55 -35 58 -35 12 0 -33 43 -59 56 -52 27 -52 14
1 -21z"/>
<path d="M3725 6830 c3 -5 10 -10 16 -10 5 0 9 5 9 10 0 6 -7 10 -16 10 -8 0
-12 -4 -9 -10z"/>
<path d="M7120 6827 c0 -20 36 -49 56 -45 24 4 30 28 7 28 -10 0 -29 7 -41 16
-18 12 -22 13 -22 1z"/>
<path d="M3790 6815 c-7 -9 -10 -25 -6 -41 9 -35 0 -61 -24 -67 -12 -3 -20
-14 -20 -26 0 -30 -29 -42 -60 -25 -20 12 -31 13 -55 4 l-30 -12 25 -19 c60
-46 70 -58 64 -73 -3 -9 -16 -16 -29 -16 -13 0 -30 -10 -39 -25 -16 -24 -66
-36 -66 -16 0 5 -2 16 -6 24 -3 8 7 29 22 46 26 31 26 32 8 46 -19 15 -19 15
0 30 16 12 17 17 6 30 -16 19 -34 19 -50 0 -16 -19 -30 -19 -30 -1 0 7 -7 19
-15 26 -12 10 -17 6 -32 -24 -9 -20 -24 -36 -34 -36 -9 0 -23 -7 -30 -17 -13
-15 -11 -16 23 -9 28 5 40 3 50 -10 7 -9 23 -26 36 -39 25 -25 28 -47 9 -64
-11 -8 -20 -4 -41 19 -21 24 -32 29 -51 24 -28 -7 -55 10 -55 35 0 9 -9 22
-20 29 -19 11 -19 14 -5 36 10 15 12 26 6 30 -5 4 -15 -3 -21 -14 -14 -26 -36
-26 -50 0 -8 15 -15 18 -28 11 -10 -5 -27 -9 -37 -8 -25 2 -32 -35 -10 -53 13
-10 15 -9 15 8 0 27 23 45 38 30 16 -16 15 -33 -3 -48 -11 -9 -13 -16 -6 -23
7 -7 16 -5 29 6 31 28 40 20 39 -32 -2 -59 23 -97 54 -81 28 15 49 12 49 -8 0
-10 6 -26 13 -36 12 -16 14 -16 38 2 21 17 32 19 69 11 90 -17 109 -13 126 26
16 40 65 69 100 61 14 -4 24 -2 24 4 0 5 9 10 20 10 24 0 26 18 3 35 -18 13
-10 35 13 35 8 0 28 -7 44 -15 27 -14 29 -14 36 8 3 12 18 31 32 43 23 19 25
27 23 80 -1 37 -8 65 -18 77 -16 16 -17 16 -35 -10 -10 -16 -18 -38 -18 -50 0
-22 -9 -27 -40 -23 -32 4 -42 24 -25 56 8 16 15 35 15 42 0 17 -25 15 -40 -3z
m80 -151 c0 -8 -4 -12 -10 -9 -5 3 -10 10 -10 16 0 5 5 9 10 9 6 0 10 -7 10
-16z"/>
<path d="M3490 6810 c0 -5 5 -10 10 -10 6 0 10 5 10 10 0 6 -4 10 -10 10 -5 0
-10 -4 -10 -10z"/>
<path d="M3565 6779 c-4 -11 -4 -23 0 -27 7 -7 25 17 25 36 0 20 -18 14 -25
-9z"/>
<path d="M6832 6779 c-17 -27 -15 -39 7 -39 27 0 35 16 19 39 -14 19 -14 19
-26 0z"/>
<path d="M6920 6760 c0 -13 7 -20 18 -20 26 0 34 11 21 27 -17 20 -39 16 -39
-7z"/>
<path d="M8270 6743 c0 -12 5 -25 10 -28 13 -8 13 15 0 35 -8 12 -10 11 -10
-7z"/>
<path d="M3642 6738 c3 -7 13 -15 22 -16 12 -3 17 1 14 10 -3 7 -13 15 -22 16
-12 3 -17 -1 -14 -10z"/>
<path d="M7127 6734 c3 -7 15 -16 26 -19 53 -15 77 -29 77 -43 0 -13 3 -12 14
4 13 16 18 17 35 7 38 -24 32 6 -6 31 -43 28 -155 43 -146 20z"/>
<path d="M6675 6729 c-4 -6 -4 -13 -1 -16 8 -8 36 5 36 17 0 13 -27 13 -35 -1z"/>
<path d="M3160 6700 c0 -5 5 -10 11 -10 5 0 7 5 4 10 -3 6 -8 10 -11 10 -2 0
-4 -4 -4 -10z"/>
<path d="M6854 6669 c-7 -12 12 -29 33 -29 19 0 27 21 12 31 -19 12 -36 11
-45 -2z"/>
<path d="M6467 6658 c-2 -7 -3 -24 -1 -38 1 -14 3 -28 3 -32 1 -5 6 -8 12 -8
7 0 9 10 7 25 -4 17 -1 25 8 25 17 0 18 12 2 28 -15 15 -25 15 -31 0z"/>
<path d="M6596 6643 c-3 -4 -6 -14 -6 -24 0 -9 -7 -19 -15 -23 -19 -7 -19 -32
-1 -39 10 -4 16 2 18 21 2 16 9 27 18 27 20 0 25 31 6 38 -8 3 -17 3 -20 0z"/>
<path d="M6186 6591 c-4 -5 -2 -12 3 -15 5 -4 12 -2 15 3 4 5 2 12 -3 15 -5 4
-12 2 -15 -3z"/>
<path d="M3380 6333 c-13 -13 -28 -23 -32 -23 -4 0 -22 -9 -40 -21 l-33 -21
35 5 c50 7 150 37 150 45 0 4 -13 14 -28 23 -26 14 -29 14 -52 -8z"/>
<path d="M2665 6260 c-7 -12 2 -30 16 -30 5 0 9 9 9 20 0 21 -15 27 -25 10z"/>
<path d="M7820 5771 c0 -6 4 -11 9 -11 17 0 90 -84 110 -125 17 -37 40 -134
56 -243 9 -58 75 -135 75 -87 0 8 7 15 15 15 26 0 60 43 70 90 9 39 15 46 44
56 45 14 82 64 49 64 -7 0 -23 15 -36 34 -24 35 -25 27 6 149 6 20 7 38 3 38
-31 6 -77 9 -206 12 -82 2 -160 7 -172 11 -15 6 -23 4 -23 -3z m317 -393 c-3
-7 -5 -2 -5 12 0 14 2 19 5 13 2 -7 2 -19 0 -25z"/>
<path d="M7664 5735 c-7 -19 -14 -51 -13 -72 l0 -38 13 35 c16 44 29 110 21
110 -3 0 -13 -16 -21 -35z"/>
<path d="M7405 5732 c4 -16 -2 -38 -20 -67 -37 -65 -30 -66 25 -6 59 62 64 87
19 93 -28 4 -30 3 -24 -20z"/>
<path d="M7057 5711 c-29 -33 -46 -38 -64 -20 -8 8 -15 4 -27 -12 -9 -13 -16
-26 -16 -29 0 -3 34 -5 75 -5 55 0 78 -4 85 -14 7 -12 17 -13 60 -3 68 16 70
15 70 -8 0 -19 0 -19 38 1 39 21 82 66 82 86 0 7 -29 13 -82 17 -46 3 -108 8
-138 11 -53 6 -57 5 -83 -24z m77 -10 c3 -4 3 -11 0 -14 -8 -8 -34 3 -34 14 0
11 27 12 34 0z"/>
<path d="M7540 5685 c0 -8 5 -15 10 -15 6 0 10 7 10 15 0 8 -4 15 -10 15 -5 0
-10 -7 -10 -15z"/>
<path d="M6855 5639 c-11 -16 -1 -19 13 -3 7 8 8 14 3 14 -5 0 -13 -5 -16 -11z"/>
<path d="M7077 5345 c-18 -23 -36 -35 -52 -35 -29 0 -64 -45 -48 -61 7 -7 19
0 36 20 14 17 34 31 44 31 26 0 88 54 79 68 -12 20 -30 13 -59 -23z"/>
<path d="M7202 5347 c-17 -21 -55 -117 -49 -124 21 -20 77 52 77 99 0 31 -13
43 -28 25z"/>
<path d="M8105 5220 c-4 -6 -1 -17 5 -25 7 -8 10 -21 7 -28 -3 -8 -2 -19 2
-26 12 -18 43 16 39 42 -4 25 -43 53 -53 37z"/>
<path d="M7096 5213 c-3 -4 -31 -12 -62 -18 -61 -12 -71 -25 -30 -40 39 -14
110 12 114 43 3 21 -8 29 -22 15z"/>
<path d="M6920 5165 c0 -14 4 -25 9 -25 12 0 23 29 15 41 -10 18 -24 9 -24
-16z"/>
<path d="M2371 5086 c-10 -12 -5 -19 26 -40 64 -44 106 -30 84 27 -9 24 -16
27 -55 27 -25 0 -48 -6 -55 -14z"/>
<path d="M3742 5063 c-39 -25 -53 -43 -34 -43 15 1 86 45 90 58 6 19 -10 15
-56 -15z"/>
<path d="M3618 4913 c-29 -7 -21 -23 11 -23 34 0 49 15 25 24 -9 3 -16 5 -17
5 -1 -1 -10 -3 -19 -6z"/>
<path d="M2560 4836 c0 -13 14 -16 88 -14 l87 1 -75 6 c-41 4 -81 10 -87 14
-8 5 -13 3 -13 -7z"/>
<path d="M1900 4747 c0 -19 33 -47 54 -47 24 0 66 30 66 46 0 17 -2 17 -35 2
-19 -9 -28 -9 -37 0 -16 16 -48 15 -48 -1z"/>
<path d="M3475 4688 c-14 -21 -14 -24 2 -35 40 -30 79 2 47 38 -22 24 -29 24
-49 -3z"/>
<path d="M3357 4679 c7 -7 15 -10 18 -7 3 3 -2 9 -12 12 -14 6 -15 5 -6 -5z"/>
<path d="M2842 4645 c-30 -12 -66 -32 -80 -43 l-27 -21 33 0 c57 -1 142 44
142 76 0 16 -3 16 -68 -12z"/>
<path d="M2492 4567 c-35 -36 -41 -64 -17 -73 29 -11 81 58 69 90 -9 23 -16
20 -52 -17z"/>
<path d="M2217 4004 c-10 -10 12 -44 28 -44 21 0 28 19 15 35 -13 16 -32 19
-43 9z"/>
<path d="M3293 5618 c-10 -13 -35 -32 -56 -43 -31 -16 -34 -21 -20 -27 36 -14
63 -8 72 15 5 12 18 31 30 41 11 11 21 23 21 28 0 16 -29 8 -47 -14z"/>
<path d="M3327 5513 c-8 -13 3 -113 13 -113 4 0 10 9 13 20 6 24 -17 108 -26
93z"/>
<path d="M3123 5480 c-24 -19 -30 -40 -13 -40 10 0 45 48 39 54 -2 3 -14 -4
-26 -14z"/>
<path d="M3220 5435 c0 -19 5 -35 10 -35 6 0 10 16 10 35 0 19 -4 35 -10 35
-5 0 -10 -16 -10 -35z"/>
<path d="M1585 4400 c3 -5 8 -10 11 -10 2 0 4 5 4 10 0 6 -5 10 -11 10 -5 0
-7 -4 -4 -10z"/>
<path d="M6830 4678 c-1 -82 -12 -275 -16 -287 -4 -11 -8 -11 -23 3 -10 9 -25
14 -33 11 -13 -5 -73 31 -197 121 -65 46 -56 23 19 -48 41 -39 70 -73 64 -75
-5 -2 -67 24 -137 57 -70 33 -134 60 -144 60 -23 0 66 -56 154 -96 39 -18 77
-42 83 -53 10 -19 8 -21 -23 -21 -56 0 -147 20 -205 46 -30 13 -57 22 -60 19
-9 -9 49 -64 103 -98 27 -17 60 -41 71 -53 27 -28 92 -39 189 -31 80 6 117 21
156 64 40 43 52 93 47 197 -6 108 -47 265 -48 184z"/>
<path d="M6611 4633 c41 -54 122 -143 130 -143 17 0 9 47 -13 75 -21 28 -103
85 -121 85 -5 0 -3 -8 4 -17z"/>
<path d="M3890 4586 c0 -16 26 -46 40 -46 21 0 21 25 0 42 -27 22 -40 23 -40
4z"/>
<path d="M7162 4528 c-16 -16 -15 -38 1 -38 17 0 57 29 57 41 0 13 -44 11 -58
-3z"/>
<path d="M3846 4508 c-10 -39 -7 -66 10 -72 12 -5 14 -15 9 -50 -7 -43 -6 -45
19 -52 38 -9 96 32 96 68 0 40 -31 87 -63 94 -16 3 -31 12 -34 20 -8 22 -30
17 -37 -8z"/>
<path d="M4301 4337 c-6 -6 -11 -18 -11 -27 0 -8 -10 -24 -22 -34 -20 -18 -24
-18 -65 -3 -44 16 -51 15 -33 -6 6 -7 17 -20 24 -31 12 -17 18 -18 82 -7 38 7
84 17 102 24 26 9 37 9 54 -2 36 -22 40 3 6 36 -40 37 -120 67 -137 50z"/>
<path d="M6167 4273 c-4 -3 -7 -15 -7 -25 0 -15 8 -18 59 -18 33 0 68 -3 78
-7 17 -6 17 -6 0 14 -10 12 -35 24 -55 28 -20 3 -44 8 -53 11 -8 2 -18 1 -22
-3z"/>
<path d="M6260 4169 c0 -35 14 -57 37 -62 22 -4 123 19 123 28 0 3 -24 11 -52
19 -98 28 -108 29 -108 15z"/>
<path d="M5080 3951 c0 -5 7 -17 16 -25 8 -9 20 -16 25 -16 13 0 11 24 -3 38
-14 14 -38 16 -38 3z"/>
<path d="M5981 3941 c-9 -6 -11 -18 -6 -42 4 -19 7 -48 7 -66 -1 -18 3 -35 9
-39 7 -4 9 0 5 12 -3 11 -1 26 4 34 7 12 16 13 55 2 63 -17 89 -15 109 6 15
18 15 20 -3 36 -34 31 -158 70 -180 57z"/>
<path d="M3080 3791 l-30 -28 57 -7 c70 -8 85 3 50 38 -33 33 -40 32 -77 -3z"/>
<path d="M7095 3790 c3 -5 10 -10 16 -10 5 0 9 5 9 10 0 6 -7 10 -16 10 -8 0
-12 -4 -9 -10z"/>
<path d="M6035 3761 c-6 -11 33 -31 61 -31 20 0 18 17 -3 23 -10 2 -25 8 -34
12 -10 3 -20 2 -24 -4z"/>
<path d="M4216 3722 c-11 -18 56 -62 93 -62 28 0 51 -37 51 -82 0 -56 27 -51
36 7 12 81 -16 116 -103 130 -21 4 -45 9 -55 11 -9 3 -19 1 -22 -4z"/>
<path d="M5485 3620 c3 -5 11 -10 16 -10 6 0 7 5 4 10 -3 6 -11 10 -16 10 -6
0 -7 -4 -4 -10z"/>
<path d="M4420 3579 c-13 -48 -10 -55 19 -39 22 11 25 21 15 58 -9 33 -22 27
-34 -19z"/>
<path d="M5033 3603 c4 -6 23 -13 44 -16 21 -4 51 -10 67 -13 19 -5 27 -3 23
3 -4 6 -21 13 -39 16 -18 4 -48 9 -67 13 -22 4 -32 3 -28 -3z"/>
<path d="M3545 3560 c3 -5 12 -10 20 -10 8 0 17 5 20 10 4 6 -5 10 -20 10 -15
0 -24 -4 -20 -10z"/>
<path d="M3130 3550 c-8 -5 -11 -12 -8 -16 9 -9 76 4 83 16 8 13 -55 13 -75 0z"/>
<path d="M5245 3517 c-4 -10 -5 -21 -1 -24 10 -10 18 4 13 24 -4 17 -4 17 -12
0z"/>
<path d="M4388 3500 c-7 -24 -3 -38 8 -28 3 4 4 17 2 30 l-3 23 -7 -25z"/>
<path d="M3285 3501 c-19 -8 -19 -8 2 -15 24 -8 43 -1 43 15 0 11 -17 11 -45
0z"/>
<path d="M3612 3503 c-22 -4 -23 -5 -5 -18 27 -21 53 -18 53 5 0 20 -5 21 -48
13z"/>
<path d="M3180 3480 c-13 -9 -13 -10 0 -10 8 0 22 5 30 10 13 9 13 10 0 10 -8
0 -22 -5 -30 -10z"/>
<path d="M4410 3484 c0 -1 12 -9 26 -19 20 -13 28 -14 40 -5 21 18 7 30 -32
27 -18 -1 -34 -3 -34 -3z"/>
<path d="M4337 3453 c-12 -11 -8 -23 8 -23 8 0 15 7 15 15 0 16 -12 20 -23 8z"/>
<path d="M3412 3428 c-17 -17 -15 -28 7 -28 19 0 35 23 24 34 -9 9 -18 7 -31
-6z"/>
<path d="M3773 3432 c-15 -9 -5 -52 12 -52 10 0 35 40 35 55 0 8 -34 5 -47 -3z"/>
<path d="M5145 3435 c-5 -2 -36 -11 -67 -20 -32 -8 -58 -20 -58 -25 0 -5 21
-15 47 -22 25 -7 48 -19 51 -27 4 -11 -11 -12 -79 -6 -73 6 -87 10 -105 32
-29 34 -48 22 -39 -25 10 -56 31 -88 71 -111 37 -22 39 -22 103 -6 139 34 168
46 202 78 19 18 43 36 54 40 18 7 17 10 -10 33 -62 51 -127 74 -170 59z"/>
<path d="M4391 3400 c-10 -6 -5 -12 18 -25 33 -17 48 -15 36 4 -11 19 -41 30
-54 21z"/>
<path d="M3445 3340 c-4 -6 -2 -17 5 -25 6 -7 10 -19 9 -27 -3 -26 1 -39 12
-32 6 3 8 16 5 29 -4 14 0 27 9 35 8 7 12 16 9 21 -7 12 -41 11 -49 -1z"/>
<path d="M4755 3289 c16 -28 38 -48 46 -43 15 9 10 31 -8 38 -10 3 -24 9 -32
12 -10 5 -11 2 -6 -7z"/>
<path d="M5600 3287 c-32 -30 -118 -70 -184 -86 -38 -9 -71 -21 -73 -27 -2 -5
27 -18 64 -27 l68 -16 20 23 c39 44 96 79 162 97 96 27 98 33 13 43 -41 5 -59
3 -70 -7z"/>
<path d="M3444 3227 c-3 -9 5 -31 21 -51 19 -26 25 -41 20 -58 -6 -18 -4 -20
5 -12 17 16 3 99 -21 120 -17 15 -19 15 -25 1z"/>
<path d="M4476 3230 c7 -7 19 -7 35 -1 23 9 22 10 -10 10 -24 1 -32 -2 -25 -9z"/>
<path d="M9545 1013 c-71 -36 -208 -177 -240 -244 -61 -132 -3 -174 135 -96
145 81 292 301 238 355 -20 20 -79 13 -133 -15z"/>
</g>
</svg>
